<mxGraphModel><root><mxCell id="0"/><mxCell id="1" parent="0"/></root></mxGraphModel>